solid fv_tag_peg2_plate_100
  facet normal 0.000000 0.000000 -1.000000
    outer loop
      vertex 0.000000 0.000000 0.000000
      vertex 109.600000 4.500000 0.000000
      vertex 109.600000 0.000000 0.000000
    endloop
  endfacet
  facet normal 0.000000 0.000000 -1.000000
    outer loop
      vertex 0.000000 0.000000 0.000000
      vertex 0.000000 4.500000 0.000000
      vertex 109.600000 4.500000 0.000000
    endloop
  endfacet
  facet normal 0.000000 0.000000 1.000000
    outer loop
      vertex 0.000000 0.000000 0.600000
      vertex 109.600000 0.000000 0.600000
      vertex 109.600000 4.500000 0.600000
    endloop
  endfacet
  facet normal 0.000000 0.000000 1.000000
    outer loop
      vertex 0.000000 0.000000 0.600000
      vertex 109.600000 4.500000 0.600000
      vertex 0.000000 4.500000 0.600000
    endloop
  endfacet
  facet normal 0.000000 -1.000000 0.000000
    outer loop
      vertex 0.000000 0.000000 0.000000
      vertex 109.600000 0.000000 0.000000
      vertex 109.600000 0.000000 0.600000
    endloop
  endfacet
  facet normal 0.000000 -1.000000 0.000000
    outer loop
      vertex 0.000000 0.000000 0.000000
      vertex 109.600000 0.000000 0.600000
      vertex 0.000000 0.000000 0.600000
    endloop
  endfacet
  facet normal 0.000000 1.000000 0.000000
    outer loop
      vertex 0.000000 4.500000 0.000000
      vertex 109.600000 4.500000 0.600000
      vertex 109.600000 4.500000 0.000000
    endloop
  endfacet
  facet normal 0.000000 1.000000 0.000000
    outer loop
      vertex 0.000000 4.500000 0.000000
      vertex 0.000000 4.500000 0.600000
      vertex 109.600000 4.500000 0.600000
    endloop
  endfacet
  facet normal -1.000000 0.000000 0.000000
    outer loop
      vertex 0.000000 0.000000 0.000000
      vertex 0.000000 0.000000 0.600000
      vertex 0.000000 4.500000 0.600000
    endloop
  endfacet
  facet normal -1.000000 0.000000 0.000000
    outer loop
      vertex 0.000000 0.000000 0.000000
      vertex 0.000000 4.500000 0.600000
      vertex 0.000000 4.500000 0.000000
    endloop
  endfacet
  facet normal 1.000000 0.000000 0.000000
    outer loop
      vertex 109.600000 0.000000 0.000000
      vertex 109.600000 4.500000 0.000000
      vertex 109.600000 4.500000 0.600000
    endloop
  endfacet
  facet normal 1.000000 0.000000 0.000000
    outer loop
      vertex 109.600000 0.000000 0.000000
      vertex 109.600000 4.500000 0.600000
      vertex 109.600000 0.000000 0.600000
    endloop
  endfacet
  facet normal 0.000000 0.000000 -1.000000
    outer loop
      vertex 0.000000 105.100000 0.000000
      vertex 109.600000 109.600000 0.000000
      vertex 109.600000 105.100000 0.000000
    endloop
  endfacet
  facet normal 0.000000 0.000000 -1.000000
    outer loop
      vertex 0.000000 105.100000 0.000000
      vertex 0.000000 109.600000 0.000000
      vertex 109.600000 109.600000 0.000000
    endloop
  endfacet
  facet normal 0.000000 0.000000 1.000000
    outer loop
      vertex 0.000000 105.100000 0.600000
      vertex 109.600000 105.100000 0.600000
      vertex 109.600000 109.600000 0.600000
    endloop
  endfacet
  facet normal 0.000000 0.000000 1.000000
    outer loop
      vertex 0.000000 105.100000 0.600000
      vertex 109.600000 109.600000 0.600000
      vertex 0.000000 109.600000 0.600000
    endloop
  endfacet
  facet normal 0.000000 -1.000000 0.000000
    outer loop
      vertex 0.000000 105.100000 0.000000
      vertex 109.600000 105.100000 0.000000
      vertex 109.600000 105.100000 0.600000
    endloop
  endfacet
  facet normal 0.000000 -1.000000 0.000000
    outer loop
      vertex 0.000000 105.100000 0.000000
      vertex 109.600000 105.100000 0.600000
      vertex 0.000000 105.100000 0.600000
    endloop
  endfacet
  facet normal 0.000000 1.000000 0.000000
    outer loop
      vertex 0.000000 109.600000 0.000000
      vertex 109.600000 109.600000 0.600000
      vertex 109.600000 109.600000 0.000000
    endloop
  endfacet
  facet normal 0.000000 1.000000 0.000000
    outer loop
      vertex 0.000000 109.600000 0.000000
      vertex 0.000000 109.600000 0.600000
      vertex 109.600000 109.600000 0.600000
    endloop
  endfacet
  facet normal -1.000000 0.000000 0.000000
    outer loop
      vertex 0.000000 105.100000 0.000000
      vertex 0.000000 105.100000 0.600000
      vertex 0.000000 109.600000 0.600000
    endloop
  endfacet
  facet normal -1.000000 0.000000 0.000000
    outer loop
      vertex 0.000000 105.100000 0.000000
      vertex 0.000000 109.600000 0.600000
      vertex 0.000000 109.600000 0.000000
    endloop
  endfacet
  facet normal 1.000000 0.000000 0.000000
    outer loop
      vertex 109.600000 105.100000 0.000000
      vertex 109.600000 109.600000 0.000000
      vertex 109.600000 109.600000 0.600000
    endloop
  endfacet
  facet normal 1.000000 0.000000 0.000000
    outer loop
      vertex 109.600000 105.100000 0.000000
      vertex 109.600000 109.600000 0.600000
      vertex 109.600000 105.100000 0.600000
    endloop
  endfacet
  facet normal 0.000000 0.000000 -1.000000
    outer loop
      vertex 0.000000 4.500000 0.000000
      vertex 4.500000 105.100000 0.000000
      vertex 4.500000 4.500000 0.000000
    endloop
  endfacet
  facet normal 0.000000 0.000000 -1.000000
    outer loop
      vertex 0.000000 4.500000 0.000000
      vertex 0.000000 105.100000 0.000000
      vertex 4.500000 105.100000 0.000000
    endloop
  endfacet
  facet normal 0.000000 0.000000 1.000000
    outer loop
      vertex 0.000000 4.500000 0.600000
      vertex 4.500000 4.500000 0.600000
      vertex 4.500000 105.100000 0.600000
    endloop
  endfacet
  facet normal 0.000000 0.000000 1.000000
    outer loop
      vertex 0.000000 4.500000 0.600000
      vertex 4.500000 105.100000 0.600000
      vertex 0.000000 105.100000 0.600000
    endloop
  endfacet
  facet normal 0.000000 -1.000000 0.000000
    outer loop
      vertex 0.000000 4.500000 0.000000
      vertex 4.500000 4.500000 0.000000
      vertex 4.500000 4.500000 0.600000
    endloop
  endfacet
  facet normal 0.000000 -1.000000 0.000000
    outer loop
      vertex 0.000000 4.500000 0.000000
      vertex 4.500000 4.500000 0.600000
      vertex 0.000000 4.500000 0.600000
    endloop
  endfacet
  facet normal 0.000000 1.000000 0.000000
    outer loop
      vertex 0.000000 105.100000 0.000000
      vertex 4.500000 105.100000 0.600000
      vertex 4.500000 105.100000 0.000000
    endloop
  endfacet
  facet normal 0.000000 1.000000 0.000000
    outer loop
      vertex 0.000000 105.100000 0.000000
      vertex 0.000000 105.100000 0.600000
      vertex 4.500000 105.100000 0.600000
    endloop
  endfacet
  facet normal -1.000000 0.000000 0.000000
    outer loop
      vertex 0.000000 4.500000 0.000000
      vertex 0.000000 4.500000 0.600000
      vertex 0.000000 105.100000 0.600000
    endloop
  endfacet
  facet normal -1.000000 0.000000 0.000000
    outer loop
      vertex 0.000000 4.500000 0.000000
      vertex 0.000000 105.100000 0.600000
      vertex 0.000000 105.100000 0.000000
    endloop
  endfacet
  facet normal 1.000000 0.000000 0.000000
    outer loop
      vertex 4.500000 4.500000 0.000000
      vertex 4.500000 105.100000 0.000000
      vertex 4.500000 105.100000 0.600000
    endloop
  endfacet
  facet normal 1.000000 0.000000 0.000000
    outer loop
      vertex 4.500000 4.500000 0.000000
      vertex 4.500000 105.100000 0.600000
      vertex 4.500000 4.500000 0.600000
    endloop
  endfacet
  facet normal 0.000000 0.000000 -1.000000
    outer loop
      vertex 105.100000 4.500000 0.000000
      vertex 109.600000 105.100000 0.000000
      vertex 109.600000 4.500000 0.000000
    endloop
  endfacet
  facet normal 0.000000 0.000000 -1.000000
    outer loop
      vertex 105.100000 4.500000 0.000000
      vertex 105.100000 105.100000 0.000000
      vertex 109.600000 105.100000 0.000000
    endloop
  endfacet
  facet normal 0.000000 0.000000 1.000000
    outer loop
      vertex 105.100000 4.500000 0.600000
      vertex 109.600000 4.500000 0.600000
      vertex 109.600000 105.100000 0.600000
    endloop
  endfacet
  facet normal 0.000000 0.000000 1.000000
    outer loop
      vertex 105.100000 4.500000 0.600000
      vertex 109.600000 105.100000 0.600000
      vertex 105.100000 105.100000 0.600000
    endloop
  endfacet
  facet normal 0.000000 -1.000000 0.000000
    outer loop
      vertex 105.100000 4.500000 0.000000
      vertex 109.600000 4.500000 0.000000
      vertex 109.600000 4.500000 0.600000
    endloop
  endfacet
  facet normal 0.000000 -1.000000 0.000000
    outer loop
      vertex 105.100000 4.500000 0.000000
      vertex 109.600000 4.500000 0.600000
      vertex 105.100000 4.500000 0.600000
    endloop
  endfacet
  facet normal 0.000000 1.000000 0.000000
    outer loop
      vertex 105.100000 105.100000 0.000000
      vertex 109.600000 105.100000 0.600000
      vertex 109.600000 105.100000 0.000000
    endloop
  endfacet
  facet normal 0.000000 1.000000 0.000000
    outer loop
      vertex 105.100000 105.100000 0.000000
      vertex 105.100000 105.100000 0.600000
      vertex 109.600000 105.100000 0.600000
    endloop
  endfacet
  facet normal -1.000000 0.000000 0.000000
    outer loop
      vertex 105.100000 4.500000 0.000000
      vertex 105.100000 4.500000 0.600000
      vertex 105.100000 105.100000 0.600000
    endloop
  endfacet
  facet normal -1.000000 0.000000 0.000000
    outer loop
      vertex 105.100000 4.500000 0.000000
      vertex 105.100000 105.100000 0.600000
      vertex 105.100000 105.100000 0.000000
    endloop
  endfacet
  facet normal 1.000000 0.000000 0.000000
    outer loop
      vertex 109.600000 4.500000 0.000000
      vertex 109.600000 105.100000 0.000000
      vertex 109.600000 105.100000 0.600000
    endloop
  endfacet
  facet normal 1.000000 0.000000 0.000000
    outer loop
      vertex 109.600000 4.500000 0.000000
      vertex 109.600000 105.100000 0.600000
      vertex 109.600000 4.500000 0.600000
    endloop
  endfacet
  facet normal 0.000000 0.000000 -1.000000
    outer loop
      vertex 0.000000 0.000000 0.600000
      vertex 109.600000 109.600000 0.600000
      vertex 109.600000 0.000000 0.600000
    endloop
  endfacet
  facet normal 0.000000 0.000000 -1.000000
    outer loop
      vertex 0.000000 0.000000 0.600000
      vertex 0.000000 109.600000 0.600000
      vertex 109.600000 109.600000 0.600000
    endloop
  endfacet
  facet normal 0.000000 0.000000 1.000000
    outer loop
      vertex 0.000000 0.000000 4.000000
      vertex 109.600000 0.000000 4.000000
      vertex 109.600000 109.600000 4.000000
    endloop
  endfacet
  facet normal 0.000000 0.000000 1.000000
    outer loop
      vertex 0.000000 0.000000 4.000000
      vertex 109.600000 109.600000 4.000000
      vertex 0.000000 109.600000 4.000000
    endloop
  endfacet
  facet normal 0.000000 -1.000000 0.000000
    outer loop
      vertex 0.000000 0.000000 0.600000
      vertex 109.600000 0.000000 0.600000
      vertex 109.600000 0.000000 4.000000
    endloop
  endfacet
  facet normal 0.000000 -1.000000 0.000000
    outer loop
      vertex 0.000000 0.000000 0.600000
      vertex 109.600000 0.000000 4.000000
      vertex 0.000000 0.000000 4.000000
    endloop
  endfacet
  facet normal 0.000000 1.000000 0.000000
    outer loop
      vertex 0.000000 109.600000 0.600000
      vertex 109.600000 109.600000 4.000000
      vertex 109.600000 109.600000 0.600000
    endloop
  endfacet
  facet normal 0.000000 1.000000 0.000000
    outer loop
      vertex 0.000000 109.600000 0.600000
      vertex 0.000000 109.600000 4.000000
      vertex 109.600000 109.600000 4.000000
    endloop
  endfacet
  facet normal -1.000000 0.000000 0.000000
    outer loop
      vertex 0.000000 0.000000 0.600000
      vertex 0.000000 0.000000 4.000000
      vertex 0.000000 109.600000 4.000000
    endloop
  endfacet
  facet normal -1.000000 0.000000 0.000000
    outer loop
      vertex 0.000000 0.000000 0.600000
      vertex 0.000000 109.600000 4.000000
      vertex 0.000000 109.600000 0.600000
    endloop
  endfacet
  facet normal 1.000000 0.000000 0.000000
    outer loop
      vertex 109.600000 0.000000 0.600000
      vertex 109.600000 109.600000 0.600000
      vertex 109.600000 109.600000 4.000000
    endloop
  endfacet
  facet normal 1.000000 0.000000 0.000000
    outer loop
      vertex 109.600000 0.000000 0.600000
      vertex 109.600000 109.600000 4.000000
      vertex 109.600000 0.000000 4.000000
    endloop
  endfacet
  facet normal 0.000000 0.000000 -1.000000
    outer loop
      vertex 36.400000 0.000000 4.000000
      vertex 42.400000 70.000000 4.000000
      vertex 42.400000 0.000000 4.000000
    endloop
  endfacet
  facet normal 0.000000 0.000000 -1.000000
    outer loop
      vertex 36.400000 0.000000 4.000000
      vertex 36.400000 70.000000 4.000000
      vertex 42.400000 70.000000 4.000000
    endloop
  endfacet
  facet normal 0.000000 0.000000 1.000000
    outer loop
      vertex 36.400000 0.000000 10.500000
      vertex 42.400000 0.000000 10.500000
      vertex 42.400000 70.000000 10.500000
    endloop
  endfacet
  facet normal 0.000000 0.000000 1.000000
    outer loop
      vertex 36.400000 0.000000 10.500000
      vertex 42.400000 70.000000 10.500000
      vertex 36.400000 70.000000 10.500000
    endloop
  endfacet
  facet normal 0.000000 -1.000000 0.000000
    outer loop
      vertex 36.400000 0.000000 4.000000
      vertex 42.400000 0.000000 4.000000
      vertex 42.400000 0.000000 10.500000
    endloop
  endfacet
  facet normal 0.000000 -1.000000 0.000000
    outer loop
      vertex 36.400000 0.000000 4.000000
      vertex 42.400000 0.000000 10.500000
      vertex 36.400000 0.000000 10.500000
    endloop
  endfacet
  facet normal 0.000000 1.000000 0.000000
    outer loop
      vertex 36.400000 70.000000 4.000000
      vertex 42.400000 70.000000 10.500000
      vertex 42.400000 70.000000 4.000000
    endloop
  endfacet
  facet normal 0.000000 1.000000 0.000000
    outer loop
      vertex 36.400000 70.000000 4.000000
      vertex 36.400000 70.000000 10.500000
      vertex 42.400000 70.000000 10.500000
    endloop
  endfacet
  facet normal -1.000000 0.000000 0.000000
    outer loop
      vertex 36.400000 0.000000 4.000000
      vertex 36.400000 0.000000 10.500000
      vertex 36.400000 70.000000 10.500000
    endloop
  endfacet
  facet normal -1.000000 0.000000 0.000000
    outer loop
      vertex 36.400000 0.000000 4.000000
      vertex 36.400000 70.000000 10.500000
      vertex 36.400000 70.000000 4.000000
    endloop
  endfacet
  facet normal 1.000000 0.000000 0.000000
    outer loop
      vertex 42.400000 0.000000 4.000000
      vertex 42.400000 70.000000 4.000000
      vertex 42.400000 70.000000 10.500000
    endloop
  endfacet
  facet normal 1.000000 0.000000 0.000000
    outer loop
      vertex 42.400000 0.000000 4.000000
      vertex 42.400000 70.000000 10.500000
      vertex 42.400000 0.000000 10.500000
    endloop
  endfacet
  facet normal 0.000000 0.000000 -1.000000
    outer loop
      vertex 67.200000 0.000000 4.000000
      vertex 73.200000 70.000000 4.000000
      vertex 73.200000 0.000000 4.000000
    endloop
  endfacet
  facet normal 0.000000 0.000000 -1.000000
    outer loop
      vertex 67.200000 0.000000 4.000000
      vertex 67.200000 70.000000 4.000000
      vertex 73.200000 70.000000 4.000000
    endloop
  endfacet
  facet normal 0.000000 0.000000 1.000000
    outer loop
      vertex 67.200000 0.000000 10.500000
      vertex 73.200000 0.000000 10.500000
      vertex 73.200000 70.000000 10.500000
    endloop
  endfacet
  facet normal 0.000000 0.000000 1.000000
    outer loop
      vertex 67.200000 0.000000 10.500000
      vertex 73.200000 70.000000 10.500000
      vertex 67.200000 70.000000 10.500000
    endloop
  endfacet
  facet normal 0.000000 -1.000000 0.000000
    outer loop
      vertex 67.200000 0.000000 4.000000
      vertex 73.200000 0.000000 4.000000
      vertex 73.200000 0.000000 10.500000
    endloop
  endfacet
  facet normal 0.000000 -1.000000 0.000000
    outer loop
      vertex 67.200000 0.000000 4.000000
      vertex 73.200000 0.000000 10.500000
      vertex 67.200000 0.000000 10.500000
    endloop
  endfacet
  facet normal 0.000000 1.000000 0.000000
    outer loop
      vertex 67.200000 70.000000 4.000000
      vertex 73.200000 70.000000 10.500000
      vertex 73.200000 70.000000 4.000000
    endloop
  endfacet
  facet normal 0.000000 1.000000 0.000000
    outer loop
      vertex 67.200000 70.000000 4.000000
      vertex 67.200000 70.000000 10.500000
      vertex 73.200000 70.000000 10.500000
    endloop
  endfacet
  facet normal -1.000000 0.000000 0.000000
    outer loop
      vertex 67.200000 0.000000 4.000000
      vertex 67.200000 0.000000 10.500000
      vertex 67.200000 70.000000 10.500000
    endloop
  endfacet
  facet normal -1.000000 0.000000 0.000000
    outer loop
      vertex 67.200000 0.000000 4.000000
      vertex 67.200000 70.000000 10.500000
      vertex 67.200000 70.000000 4.000000
    endloop
  endfacet
  facet normal 1.000000 0.000000 0.000000
    outer loop
      vertex 73.200000 0.000000 4.000000
      vertex 73.200000 70.000000 4.000000
      vertex 73.200000 70.000000 10.500000
    endloop
  endfacet
  facet normal 1.000000 0.000000 0.000000
    outer loop
      vertex 73.200000 0.000000 4.000000
      vertex 73.200000 70.000000 10.500000
      vertex 73.200000 0.000000 10.500000
    endloop
  endfacet
  facet normal 0.000000 0.000000 -1.000000
    outer loop
      vertex 36.400000 0.000000 10.500000
      vertex 73.200000 70.000000 10.500000
      vertex 73.200000 0.000000 10.500000
    endloop
  endfacet
  facet normal 0.000000 0.000000 -1.000000
    outer loop
      vertex 36.400000 0.000000 10.500000
      vertex 36.400000 70.000000 10.500000
      vertex 73.200000 70.000000 10.500000
    endloop
  endfacet
  facet normal 0.000000 0.000000 1.000000
    outer loop
      vertex 36.400000 0.000000 13.500000
      vertex 73.200000 0.000000 13.500000
      vertex 73.200000 70.000000 13.500000
    endloop
  endfacet
  facet normal 0.000000 0.000000 1.000000
    outer loop
      vertex 36.400000 0.000000 13.500000
      vertex 73.200000 70.000000 13.500000
      vertex 36.400000 70.000000 13.500000
    endloop
  endfacet
  facet normal 0.000000 -1.000000 0.000000
    outer loop
      vertex 36.400000 0.000000 10.500000
      vertex 73.200000 0.000000 10.500000
      vertex 73.200000 0.000000 13.500000
    endloop
  endfacet
  facet normal 0.000000 -1.000000 0.000000
    outer loop
      vertex 36.400000 0.000000 10.500000
      vertex 73.200000 0.000000 13.500000
      vertex 36.400000 0.000000 13.500000
    endloop
  endfacet
  facet normal 0.000000 1.000000 0.000000
    outer loop
      vertex 36.400000 70.000000 10.500000
      vertex 73.200000 70.000000 13.500000
      vertex 73.200000 70.000000 10.500000
    endloop
  endfacet
  facet normal 0.000000 1.000000 0.000000
    outer loop
      vertex 36.400000 70.000000 10.500000
      vertex 36.400000 70.000000 13.500000
      vertex 73.200000 70.000000 13.500000
    endloop
  endfacet
  facet normal -1.000000 0.000000 0.000000
    outer loop
      vertex 36.400000 0.000000 10.500000
      vertex 36.400000 0.000000 13.500000
      vertex 36.400000 70.000000 13.500000
    endloop
  endfacet
  facet normal -1.000000 0.000000 0.000000
    outer loop
      vertex 36.400000 0.000000 10.500000
      vertex 36.400000 70.000000 13.500000
      vertex 36.400000 70.000000 10.500000
    endloop
  endfacet
  facet normal 1.000000 0.000000 0.000000
    outer loop
      vertex 73.200000 0.000000 10.500000
      vertex 73.200000 70.000000 10.500000
      vertex 73.200000 70.000000 13.500000
    endloop
  endfacet
  facet normal 1.000000 0.000000 0.000000
    outer loop
      vertex 73.200000 0.000000 10.500000
      vertex 73.200000 70.000000 13.500000
      vertex 73.200000 0.000000 13.500000
    endloop
  endfacet
  facet normal 0.000000 0.000000 -1.000000
    outer loop
      vertex 42.400000 70.000000 4.000000
      vertex 67.200000 76.000000 4.000000
      vertex 67.200000 70.000000 4.000000
    endloop
  endfacet
  facet normal 0.000000 0.000000 -1.000000
    outer loop
      vertex 42.400000 70.000000 4.000000
      vertex 42.400000 76.000000 4.000000
      vertex 67.200000 76.000000 4.000000
    endloop
  endfacet
  facet normal 0.000000 0.000000 1.000000
    outer loop
      vertex 42.400000 70.000000 13.500000
      vertex 67.200000 70.000000 13.500000
      vertex 67.200000 76.000000 13.500000
    endloop
  endfacet
  facet normal 0.000000 0.000000 1.000000
    outer loop
      vertex 42.400000 70.000000 13.500000
      vertex 67.200000 76.000000 13.500000
      vertex 42.400000 76.000000 13.500000
    endloop
  endfacet
  facet normal 0.000000 -1.000000 0.000000
    outer loop
      vertex 42.400000 70.000000 4.000000
      vertex 67.200000 70.000000 4.000000
      vertex 67.200000 70.000000 13.500000
    endloop
  endfacet
  facet normal 0.000000 -1.000000 0.000000
    outer loop
      vertex 42.400000 70.000000 4.000000
      vertex 67.200000 70.000000 13.500000
      vertex 42.400000 70.000000 13.500000
    endloop
  endfacet
  facet normal 0.000000 1.000000 0.000000
    outer loop
      vertex 42.400000 76.000000 4.000000
      vertex 67.200000 76.000000 13.500000
      vertex 67.200000 76.000000 4.000000
    endloop
  endfacet
  facet normal 0.000000 1.000000 0.000000
    outer loop
      vertex 42.400000 76.000000 4.000000
      vertex 42.400000 76.000000 13.500000
      vertex 67.200000 76.000000 13.500000
    endloop
  endfacet
  facet normal -1.000000 0.000000 0.000000
    outer loop
      vertex 42.400000 70.000000 4.000000
      vertex 42.400000 70.000000 13.500000
      vertex 42.400000 76.000000 13.500000
    endloop
  endfacet
  facet normal -1.000000 0.000000 0.000000
    outer loop
      vertex 42.400000 70.000000 4.000000
      vertex 42.400000 76.000000 13.500000
      vertex 42.400000 76.000000 4.000000
    endloop
  endfacet
  facet normal 1.000000 0.000000 0.000000
    outer loop
      vertex 67.200000 70.000000 4.000000
      vertex 67.200000 76.000000 4.000000
      vertex 67.200000 76.000000 13.500000
    endloop
  endfacet
  facet normal 1.000000 0.000000 0.000000
    outer loop
      vertex 67.200000 70.000000 4.000000
      vertex 67.200000 76.000000 13.500000
      vertex 67.200000 70.000000 13.500000
    endloop
  endfacet
endsolid fv_tag_peg2_plate_100
