solid fv_tag_stand_150
  facet normal 0.000000 0.000000 -1.000000
    outer loop
      vertex 0.000000 0.000000 0.000000
      vertex 159.600000 159.600000 0.000000
      vertex 159.600000 0.000000 0.000000
    endloop
  endfacet
  facet normal 0.000000 0.000000 -1.000000
    outer loop
      vertex 0.000000 0.000000 0.000000
      vertex 0.000000 159.600000 0.000000
      vertex 159.600000 159.600000 0.000000
    endloop
  endfacet
  facet normal 0.000000 0.000000 1.000000
    outer loop
      vertex 0.000000 0.000000 3.400000
      vertex 159.600000 0.000000 3.400000
      vertex 159.600000 159.600000 3.400000
    endloop
  endfacet
  facet normal 0.000000 0.000000 1.000000
    outer loop
      vertex 0.000000 0.000000 3.400000
      vertex 159.600000 159.600000 3.400000
      vertex 0.000000 159.600000 3.400000
    endloop
  endfacet
  facet normal 0.000000 -1.000000 0.000000
    outer loop
      vertex 0.000000 0.000000 0.000000
      vertex 159.600000 0.000000 0.000000
      vertex 159.600000 0.000000 3.400000
    endloop
  endfacet
  facet normal 0.000000 -1.000000 0.000000
    outer loop
      vertex 0.000000 0.000000 0.000000
      vertex 159.600000 0.000000 3.400000
      vertex 0.000000 0.000000 3.400000
    endloop
  endfacet
  facet normal 0.000000 1.000000 0.000000
    outer loop
      vertex 0.000000 159.600000 0.000000
      vertex 159.600000 159.600000 3.400000
      vertex 159.600000 159.600000 0.000000
    endloop
  endfacet
  facet normal 0.000000 1.000000 0.000000
    outer loop
      vertex 0.000000 159.600000 0.000000
      vertex 0.000000 159.600000 3.400000
      vertex 159.600000 159.600000 3.400000
    endloop
  endfacet
  facet normal -1.000000 0.000000 0.000000
    outer loop
      vertex 0.000000 0.000000 0.000000
      vertex 0.000000 0.000000 3.400000
      vertex 0.000000 159.600000 3.400000
    endloop
  endfacet
  facet normal -1.000000 0.000000 0.000000
    outer loop
      vertex 0.000000 0.000000 0.000000
      vertex 0.000000 159.600000 3.400000
      vertex 0.000000 159.600000 0.000000
    endloop
  endfacet
  facet normal 1.000000 0.000000 0.000000
    outer loop
      vertex 159.600000 0.000000 0.000000
      vertex 159.600000 159.600000 0.000000
      vertex 159.600000 159.600000 3.400000
    endloop
  endfacet
  facet normal 1.000000 0.000000 0.000000
    outer loop
      vertex 159.600000 0.000000 0.000000
      vertex 159.600000 159.600000 3.400000
      vertex 159.600000 0.000000 3.400000
    endloop
  endfacet
  facet normal 0.000000 0.000000 -1.000000
    outer loop
      vertex 0.000000 0.000000 3.400000
      vertex 159.600000 4.500000 3.400000
      vertex 159.600000 0.000000 3.400000
    endloop
  endfacet
  facet normal 0.000000 0.000000 -1.000000
    outer loop
      vertex 0.000000 0.000000 3.400000
      vertex 0.000000 4.500000 3.400000
      vertex 159.600000 4.500000 3.400000
    endloop
  endfacet
  facet normal 0.000000 0.000000 1.000000
    outer loop
      vertex 0.000000 0.000000 4.000000
      vertex 159.600000 0.000000 4.000000
      vertex 159.600000 4.500000 4.000000
    endloop
  endfacet
  facet normal 0.000000 0.000000 1.000000
    outer loop
      vertex 0.000000 0.000000 4.000000
      vertex 159.600000 4.500000 4.000000
      vertex 0.000000 4.500000 4.000000
    endloop
  endfacet
  facet normal 0.000000 -1.000000 0.000000
    outer loop
      vertex 0.000000 0.000000 3.400000
      vertex 159.600000 0.000000 3.400000
      vertex 159.600000 0.000000 4.000000
    endloop
  endfacet
  facet normal 0.000000 -1.000000 0.000000
    outer loop
      vertex 0.000000 0.000000 3.400000
      vertex 159.600000 0.000000 4.000000
      vertex 0.000000 0.000000 4.000000
    endloop
  endfacet
  facet normal 0.000000 1.000000 0.000000
    outer loop
      vertex 0.000000 4.500000 3.400000
      vertex 159.600000 4.500000 4.000000
      vertex 159.600000 4.500000 3.400000
    endloop
  endfacet
  facet normal 0.000000 1.000000 0.000000
    outer loop
      vertex 0.000000 4.500000 3.400000
      vertex 0.000000 4.500000 4.000000
      vertex 159.600000 4.500000 4.000000
    endloop
  endfacet
  facet normal -1.000000 0.000000 0.000000
    outer loop
      vertex 0.000000 0.000000 3.400000
      vertex 0.000000 0.000000 4.000000
      vertex 0.000000 4.500000 4.000000
    endloop
  endfacet
  facet normal -1.000000 0.000000 0.000000
    outer loop
      vertex 0.000000 0.000000 3.400000
      vertex 0.000000 4.500000 4.000000
      vertex 0.000000 4.500000 3.400000
    endloop
  endfacet
  facet normal 1.000000 0.000000 0.000000
    outer loop
      vertex 159.600000 0.000000 3.400000
      vertex 159.600000 4.500000 3.400000
      vertex 159.600000 4.500000 4.000000
    endloop
  endfacet
  facet normal 1.000000 0.000000 0.000000
    outer loop
      vertex 159.600000 0.000000 3.400000
      vertex 159.600000 4.500000 4.000000
      vertex 159.600000 0.000000 4.000000
    endloop
  endfacet
  facet normal 0.000000 0.000000 -1.000000
    outer loop
      vertex 0.000000 155.100000 3.400000
      vertex 159.600000 159.600000 3.400000
      vertex 159.600000 155.100000 3.400000
    endloop
  endfacet
  facet normal 0.000000 0.000000 -1.000000
    outer loop
      vertex 0.000000 155.100000 3.400000
      vertex 0.000000 159.600000 3.400000
      vertex 159.600000 159.600000 3.400000
    endloop
  endfacet
  facet normal 0.000000 0.000000 1.000000
    outer loop
      vertex 0.000000 155.100000 4.000000
      vertex 159.600000 155.100000 4.000000
      vertex 159.600000 159.600000 4.000000
    endloop
  endfacet
  facet normal 0.000000 0.000000 1.000000
    outer loop
      vertex 0.000000 155.100000 4.000000
      vertex 159.600000 159.600000 4.000000
      vertex 0.000000 159.600000 4.000000
    endloop
  endfacet
  facet normal 0.000000 -1.000000 0.000000
    outer loop
      vertex 0.000000 155.100000 3.400000
      vertex 159.600000 155.100000 3.400000
      vertex 159.600000 155.100000 4.000000
    endloop
  endfacet
  facet normal 0.000000 -1.000000 0.000000
    outer loop
      vertex 0.000000 155.100000 3.400000
      vertex 159.600000 155.100000 4.000000
      vertex 0.000000 155.100000 4.000000
    endloop
  endfacet
  facet normal 0.000000 1.000000 0.000000
    outer loop
      vertex 0.000000 159.600000 3.400000
      vertex 159.600000 159.600000 4.000000
      vertex 159.600000 159.600000 3.400000
    endloop
  endfacet
  facet normal 0.000000 1.000000 0.000000
    outer loop
      vertex 0.000000 159.600000 3.400000
      vertex 0.000000 159.600000 4.000000
      vertex 159.600000 159.600000 4.000000
    endloop
  endfacet
  facet normal -1.000000 0.000000 0.000000
    outer loop
      vertex 0.000000 155.100000 3.400000
      vertex 0.000000 155.100000 4.000000
      vertex 0.000000 159.600000 4.000000
    endloop
  endfacet
  facet normal -1.000000 0.000000 0.000000
    outer loop
      vertex 0.000000 155.100000 3.400000
      vertex 0.000000 159.600000 4.000000
      vertex 0.000000 159.600000 3.400000
    endloop
  endfacet
  facet normal 1.000000 0.000000 0.000000
    outer loop
      vertex 159.600000 155.100000 3.400000
      vertex 159.600000 159.600000 3.400000
      vertex 159.600000 159.600000 4.000000
    endloop
  endfacet
  facet normal 1.000000 0.000000 0.000000
    outer loop
      vertex 159.600000 155.100000 3.400000
      vertex 159.600000 159.600000 4.000000
      vertex 159.600000 155.100000 4.000000
    endloop
  endfacet
  facet normal 0.000000 0.000000 -1.000000
    outer loop
      vertex 0.000000 4.500000 3.400000
      vertex 4.500000 155.100000 3.400000
      vertex 4.500000 4.500000 3.400000
    endloop
  endfacet
  facet normal 0.000000 0.000000 -1.000000
    outer loop
      vertex 0.000000 4.500000 3.400000
      vertex 0.000000 155.100000 3.400000
      vertex 4.500000 155.100000 3.400000
    endloop
  endfacet
  facet normal 0.000000 0.000000 1.000000
    outer loop
      vertex 0.000000 4.500000 4.000000
      vertex 4.500000 4.500000 4.000000
      vertex 4.500000 155.100000 4.000000
    endloop
  endfacet
  facet normal 0.000000 0.000000 1.000000
    outer loop
      vertex 0.000000 4.500000 4.000000
      vertex 4.500000 155.100000 4.000000
      vertex 0.000000 155.100000 4.000000
    endloop
  endfacet
  facet normal 0.000000 -1.000000 0.000000
    outer loop
      vertex 0.000000 4.500000 3.400000
      vertex 4.500000 4.500000 3.400000
      vertex 4.500000 4.500000 4.000000
    endloop
  endfacet
  facet normal 0.000000 -1.000000 0.000000
    outer loop
      vertex 0.000000 4.500000 3.400000
      vertex 4.500000 4.500000 4.000000
      vertex 0.000000 4.500000 4.000000
    endloop
  endfacet
  facet normal 0.000000 1.000000 0.000000
    outer loop
      vertex 0.000000 155.100000 3.400000
      vertex 4.500000 155.100000 4.000000
      vertex 4.500000 155.100000 3.400000
    endloop
  endfacet
  facet normal 0.000000 1.000000 0.000000
    outer loop
      vertex 0.000000 155.100000 3.400000
      vertex 0.000000 155.100000 4.000000
      vertex 4.500000 155.100000 4.000000
    endloop
  endfacet
  facet normal -1.000000 0.000000 0.000000
    outer loop
      vertex 0.000000 4.500000 3.400000
      vertex 0.000000 4.500000 4.000000
      vertex 0.000000 155.100000 4.000000
    endloop
  endfacet
  facet normal -1.000000 0.000000 0.000000
    outer loop
      vertex 0.000000 4.500000 3.400000
      vertex 0.000000 155.100000 4.000000
      vertex 0.000000 155.100000 3.400000
    endloop
  endfacet
  facet normal 1.000000 0.000000 0.000000
    outer loop
      vertex 4.500000 4.500000 3.400000
      vertex 4.500000 155.100000 3.400000
      vertex 4.500000 155.100000 4.000000
    endloop
  endfacet
  facet normal 1.000000 0.000000 0.000000
    outer loop
      vertex 4.500000 4.500000 3.400000
      vertex 4.500000 155.100000 4.000000
      vertex 4.500000 4.500000 4.000000
    endloop
  endfacet
  facet normal 0.000000 0.000000 -1.000000
    outer loop
      vertex 155.100000 4.500000 3.400000
      vertex 159.600000 155.100000 3.400000
      vertex 159.600000 4.500000 3.400000
    endloop
  endfacet
  facet normal 0.000000 0.000000 -1.000000
    outer loop
      vertex 155.100000 4.500000 3.400000
      vertex 155.100000 155.100000 3.400000
      vertex 159.600000 155.100000 3.400000
    endloop
  endfacet
  facet normal 0.000000 0.000000 1.000000
    outer loop
      vertex 155.100000 4.500000 4.000000
      vertex 159.600000 4.500000 4.000000
      vertex 159.600000 155.100000 4.000000
    endloop
  endfacet
  facet normal 0.000000 0.000000 1.000000
    outer loop
      vertex 155.100000 4.500000 4.000000
      vertex 159.600000 155.100000 4.000000
      vertex 155.100000 155.100000 4.000000
    endloop
  endfacet
  facet normal 0.000000 -1.000000 0.000000
    outer loop
      vertex 155.100000 4.500000 3.400000
      vertex 159.600000 4.500000 3.400000
      vertex 159.600000 4.500000 4.000000
    endloop
  endfacet
  facet normal 0.000000 -1.000000 0.000000
    outer loop
      vertex 155.100000 4.500000 3.400000
      vertex 159.600000 4.500000 4.000000
      vertex 155.100000 4.500000 4.000000
    endloop
  endfacet
  facet normal 0.000000 1.000000 0.000000
    outer loop
      vertex 155.100000 155.100000 3.400000
      vertex 159.600000 155.100000 4.000000
      vertex 159.600000 155.100000 3.400000
    endloop
  endfacet
  facet normal 0.000000 1.000000 0.000000
    outer loop
      vertex 155.100000 155.100000 3.400000
      vertex 155.100000 155.100000 4.000000
      vertex 159.600000 155.100000 4.000000
    endloop
  endfacet
  facet normal -1.000000 0.000000 0.000000
    outer loop
      vertex 155.100000 4.500000 3.400000
      vertex 155.100000 4.500000 4.000000
      vertex 155.100000 155.100000 4.000000
    endloop
  endfacet
  facet normal -1.000000 0.000000 0.000000
    outer loop
      vertex 155.100000 4.500000 3.400000
      vertex 155.100000 155.100000 4.000000
      vertex 155.100000 155.100000 3.400000
    endloop
  endfacet
  facet normal 1.000000 0.000000 0.000000
    outer loop
      vertex 159.600000 4.500000 3.400000
      vertex 159.600000 155.100000 3.400000
      vertex 159.600000 155.100000 4.000000
    endloop
  endfacet
  facet normal 1.000000 0.000000 0.000000
    outer loop
      vertex 159.600000 4.500000 3.400000
      vertex 159.600000 155.100000 4.000000
      vertex 159.600000 4.500000 4.000000
    endloop
  endfacet
endsolid fv_tag_stand_150
